<?xml version="1.0" standalone="no"?>
<!DOCTYPE svg PUBLIC "-//W3C//DTD SVG 1.1//EN" "http://www.w3.org/Graphics/SVG/1.1/DTD/svg11.dtd" >
<svg xmlns="http://www.w3.org/2000/svg" xmlns:xlink="http://www.w3.org/1999/xlink" version="1.1">
<metadata>
Created by FontForge 20170812 at Thu Apr  1 15:25:35 2010
 By www-data
Copyright 2010 Adobe Systems Incorporated. All rights reserved.
</metadata>
<defs>
<font id="Medium" horiz-adv-x="650" >
  <font-face 
    font-family="Noir"
    font-weight="500"
    font-stretch="normal"
    units-per-em="1000"
    panose-1="0 0 0 0 0 0 0 0 0 0"
    ascent="800"
    descent="-200"
    x-height="498"
    cap-height="700"
    bbox="-4270 -524 990 773"
    underline-thickness="50"
    underline-position="-100"
    unicode-range="U+000D-FB02"
  />
<missing-glyph horiz-adv-x="500" 
 />
    <glyph glyph-name=".notdef" horiz-adv-x="500" 
 />
    <glyph glyph-name=".null" horiz-adv-x="0" 
 />
    <glyph glyph-name=".null" horiz-adv-x="0" 
 />
    <glyph glyph-name="CR" unicode="&#xd;" horiz-adv-x="422" 
 />
    <glyph glyph-name="space" unicode=" " horiz-adv-x="338" 
 />
    <glyph glyph-name="C" unicode="C" horiz-adv-x="730" 
d="M603 196l91 -39c-64 -101 -176 -168 -303 -168c-196 0 -352 163 -352 362c0 200 156 361 352 361c120 0 226 -58 292 -151l-79 -55c-50 70 -118 114 -213 114c-138 0 -253 -123 -253 -269c0 -145 115 -269 253 -269c92 0 166 47 212 114z" />
    <glyph glyph-name="D" unicode="D" horiz-adv-x="611" 
d="M240 698c189 0 337 -158 337 -350c0 -191 -148 -348 -337 -348v0h-69v0h-105v698h105v0h69v0zM240 94c130 0 235 119 235 254c0 137 -105 257 -235 257v0h-72v-511h72v0z" />
    <glyph glyph-name="E" unicode="E" horiz-adv-x="548" 
d="M490 606h-320v-298h274v-94h-274v-120h320v-94h-423v700h423v-94z" />
    <glyph glyph-name="F" unicode="F" horiz-adv-x="543" 
d="M488 606h-310v-299h265v-93h-265v-214h-110v699h55h55h310v-93z" />
    <glyph glyph-name="G" unicode="G" horiz-adv-x="827" 
d="M769 361v-12c0 -203 -143 -365 -354 -365c-199 0 -361 162 -361 365c0 201 162 367 361 367c153 0 235 -64 300 -128l-87 -68c-44 41 -110 87 -213 87c-137 0 -247 -115 -247 -258c0 -144 110 -260 247 -260c108 0 202 65 232 174h-175v98h297z" />
    <glyph glyph-name="H" unicode="H" horiz-adv-x="662" 
d="M480 699h112v-699h-112v214h-301v-214h-112v700h112v-392h301v391z" />
    <glyph glyph-name="I" unicode="I" horiz-adv-x="213" 
d="M160 0v700h-109v-700h109z" />
    <glyph glyph-name="J" unicode="J" horiz-adv-x="415" 
d="M236 700h104v-448c0 -71 -3 -127 -31 -173c-36 -54 -94 -85 -169 -85c-41 0 -75 9 -102 24l65 78c12 -4 24 -7 39 -7c89 0 94 61 94 177v434z" />
    <glyph glyph-name="K" unicode="K" horiz-adv-x="578" 
d="M302 336l-38 46l41 49l229 270h-137l-175 -212l-50 -65v69v208h-111l1 -701h110v279l14 17l7 9l16 -22l210 -282h143z" />
    <glyph glyph-name="L" unicode="L" horiz-adv-x="546" 
d="M169 98h323v-98h-323h-65h-39v700h104v-602z" />
    <glyph glyph-name="A" unicode="A" horiz-adv-x="635" 
d="M511 1c0 0 -20 50 -46 112h-302c-24 -62 -44 -112 -44 -112h-112l307 716l309 -716h-112zM316 206c102 0 114 -2 114 -2s-18 39 -25 57c-15 42 -30 76 -37 96c-34 85 -52 142 -52 142s-22 -58 -56 -142c-8 -22 -21 -57 -37 -96c-7 -18 -24 -57 -24 -57s14 2 117 2z" />
    <glyph glyph-name="B" unicode="B" horiz-adv-x="639" 
d="M485 392c58 -23 114 -95 114 -174c0 -120 -90 -218 -194 -218v0h-324v702h315v0c93 -3 165 -71 165 -172c0 -54 -40 -109 -78 -131c-4 -3 -11 -4 -11 -4s7 -1 13 -3zM370 624h-186v-196h175c69 0 100 54 100 103c0 46 -19 93 -89 93zM405 94c58 0 90 58 90 124
c0 67 -16 118 -132 118h-179v-242h221v0z" />
    <glyph glyph-name="M" unicode="M" horiz-adv-x="852" 
d="M776 0v718l-343 -370l-365 370v-718h114v339l-2 95l57 -68l196 -181l183 194l53 61l-3 -81l-1 -359h111z" />
    <glyph glyph-name="N" unicode="N" horiz-adv-x="713" 
d="M62 4v711l386 -381l84 -87l-1 107v345h115v-708l-405 392l-69 74l1 -87v-366h-111z" />
    <glyph glyph-name="O" unicode="O" horiz-adv-x="785" 
d="M390 715c194 0 351 -163 351 -363s-157 -363 -351 -363c-195 0 -352 163 -352 363s157 363 352 363zM390 93c133 0 241 116 241 259s-108 259 -241 259s-240 -116 -240 -259s107 -259 240 -259z" />
    <glyph glyph-name="P" unicode="P" horiz-adv-x="587" 
d="M397 196c0 0 -39 -22 -119 -22h-109v-174h-105v700h89h16h143v0c126 -6 227 -121 227 -262c0 -108 -58 -202 -142 -242zM169 606v-338h133c77 4 141 77 141 170c0 86 -58 158 -131 168h-143z" />
    <glyph glyph-name="Q" unicode="Q" horiz-adv-x="820" 
d="M764 -1h-118l-32 39l-18 24c-9 -7 -17 -14 -26 -20c-54 -36 -119 -56 -186 -56c-192 0 -349 163 -349 361s157 361 349 361c194 0 348 -163 348 -361c0 -66 -17 -129 -47 -180c-7 -14 -19 -27 -29 -40l35 -39zM487 114c16 9 30 17 43 27l-30 33l-57 67h123l12 -14l9 -16
c3 6 6 12 9 17c17 36 27 76 27 119c0 143 -107 256 -239 256c-134 0 -239 -113 -239 -256s105 -256 239 -256c36 0 72 8 103 23z" />
    <glyph glyph-name="R" unicode="R" horiz-adv-x="595" 
d="M539 436c0 -108 -58 -200 -143 -242l140 -194v0h-134l-124 173h-109v-173h-105v700h89h16h143v-2c126 -4 227 -121 227 -262zM169 605v-339h132c78 5 142 79 142 170c0 88 -58 160 -131 169h-143z" />
    <glyph glyph-name="S" unicode="S" horiz-adv-x="568" 
d="M290 400c143 -8 254 -108 247 -220c-5 -113 -126 -198 -269 -191c-118 7 -212 74 -240 158l122 33c19 -50 59 -77 124 -80c74 -4 137 27 139 87c5 58 -53 105 -128 109c-3 0 -5 0 -8 2c-139 11 -233 111 -228 220c7 114 116 201 258 192c98 -5 178 -52 219 -115l-108 -45
c-22 34 -66 53 -117 56c-72 5 -141 -34 -143 -93c-3 -58 58 -109 132 -113v0z" />
    <glyph glyph-name="T" unicode="T" horiz-adv-x="555" 
d="M12 698h532v-100h-210v-597h-118v597h-204v100z" />
    <glyph glyph-name="U" unicode="U" horiz-adv-x="601" 
d="M457 699h78h13v-459c0 -138 -112 -250 -249 -250c-138 0 -250 112 -250 250v459h13h78h7v-448c0 -85 68 -163 152 -163c83 0 151 78 151 163v448h7z" />
    <glyph glyph-name="V" unicode="V" horiz-adv-x="621" 
d="M608 700h-118l-150 -343l-44 -112l-39 115l-127 340h-115l272 -714z" />
    <glyph glyph-name="W" unicode="W" horiz-adv-x="981" 
d="M959 701l-267 -718l-205 466l-205 -466l-267 718h120l117 -324l41 -124l51 122l143 326v-7v7l145 -334l48 -116l38 114l121 336h120z" />
    <glyph glyph-name="X" unicode="X" horiz-adv-x="616" 
d="M399 307l-30 47l33 53l185 292h-126l-125 -198l-30 -50l-29 49l-117 199h-122l172 -292l30 -53l-33 -53l-182 -301h119l127 215l33 54l32 -57l125 -212h121z" />
    <glyph glyph-name="Y" unicode="Y" horiz-adv-x="621" 
d="M609 699h-120l-142 -231l-39 -64l-39 65l-143 230h-118l207 -335l37 -60v-67v-237h115v228l-2 76l32 49z" />
    <glyph glyph-name="Z" unicode="Z" horiz-adv-x="599" 
d="M571 699h-544v-99l363 2l-367 -603h535v104l-344 1z" />
    <glyph glyph-name="fraction" unicode="&#x2044;" horiz-adv-x="465" 
d="M361 699h92l-349 -699h-92z" />
    <glyph glyph-name="slash" unicode="/" horiz-adv-x="465" 
d="M357 699h92l-349 -699h-92z" />
    <glyph glyph-name="exclam" unicode="!" horiz-adv-x="218" 
d="M159 0l1 95h-98v-95h97zM76 206h70l14 493h-98z" />
    <glyph glyph-name="quotedbl" unicode="&#x22;" horiz-adv-x="300" 
d="M62 617v-82c8 7 57 33 57 69v96h-87v-83h30zM207 617l-1 -82c9 7 57 33 58 69v96h-87v-83h30z" />
    <glyph glyph-name="fi" unicode="&#xfb01;" horiz-adv-x="434" 
d="M330 506h73v-506h-73v506zM275 412v-59h-122v-470h-76v470h-68v59h68v169v0v5c0 71 52 117 123 120c79 4 104 -34 123 -51l-55 -41c-26 26 -58 28 -71 25c-19 -5 -44 -27 -44 -58v-169h122z" />
    <glyph glyph-name="fl" unicode="&#xfb02;" horiz-adv-x="430" 
d="M330 605h73v-605h-73v605zM275 414v-61h-122v-470h-76v470h-68v61h68v168v0v4c0 71 53 117 124 120c77 3 104 -34 121 -51l-56 -42c-24 28 -55 30 -69 26c-19 -4 -44 -27 -44 -57v-168h122z" />
    <glyph glyph-name="numbersign" unicode="#" horiz-adv-x="885" 
d="M770 386h-168l-40 -136h169l-26 -72h-164l-55 -178h-69l52 178h-141l-54 -178h-71l52 178h-174l26 72h169l39 136h-168l25 72h165l52 180h74l-53 -180h140l52 180h76l-54 -180h172zM489 250l40 136h-140l-40 -136h140z" />
    <glyph glyph-name="a" unicode="a" horiz-adv-x="648" 
d="M464 501h99v-497h-99v36v25c-5 -5 -11 -12 -18 -17c-43 -35 -98 -56 -159 -56c-143 0 -257 116 -257 257s114 257 257 257c59 0 114 -21 159 -55c6 -6 12 -14 18 -20v23v47zM287 84c90 0 178 71 178 163c0 91 -88 165 -178 165c-91 0 -163 -74 -163 -165
c0 -90 72 -163 163 -163z" />
    <glyph glyph-name="b" unicode="b" horiz-adv-x="634" 
d="M333 493c140 0 252 -111 252 -251c0 -139 -112 -251 -252 -251c-55 0 -104 16 -146 45c-10 8 -18 17 -26 24v-36v-24h-102v700h102v-234v-41c9 9 21 19 32 26c40 26 88 42 140 42zM334 82c88 0 157 71 157 160c0 90 -69 162 -157 162c-89 0 -173 -72 -173 -162
c0 -89 84 -160 173 -160z" />
    <glyph glyph-name="c" unicode="c" horiz-adv-x="521" 
d="M404 149l85 -35c-44 -70 -123 -121 -212 -121c-140 0 -247 117 -247 257c0 139 107 259 247 259c83 0 158 -48 203 -110l-77 -48c-29 37 -75 63 -126 63c-89 0 -152 -75 -152 -164c0 -90 63 -162 152 -162c51 0 98 23 127 61z" />
    <glyph glyph-name="d" unicode="d" horiz-adv-x="622" 
d="M30 245c0 138 112 249 249 249c54 0 105 -17 145 -45c9 -7 18 -16 27 -23v33v241h101v-697h-101v27v32c-9 -9 -19 -17 -29 -24c-41 -28 -90 -44 -143 -44c-137 0 -249 112 -249 251zM123 245c0 -90 67 -161 156 -161s172 71 172 161c0 88 -83 159 -172 159
s-156 -71 -156 -159z" />
    <glyph glyph-name="e" unicode="e" horiz-adv-x="558" 
d="M422 167h106c-48 -117 -146 -175 -248 -175c-142 0 -256 117 -256 258c0 142 114 259 256 259c141 0 255 -117 255 -259c0 -9 0 -20 -1 -28h-92h-51h-269c13 -77 77 -137 158 -137c62 0 116 30 142 82zM132 316c-3 -7 -6 -13 -7 -19h17h264h30c-3 8 -8 16 -11 24
c-26 55 -80 96 -145 96c-68 0 -123 -43 -148 -101z" />
    <glyph glyph-name="f" unicode="f" horiz-adv-x="381" 
d="M325 499v-77h-113v-422h-102v422h-70v77h70v100h1c-1 2 -1 3 -1 4c0 68 67 115 136 118c76 2 101 -33 119 -50l-56 -68c-23 26 -50 23 -63 20c-19 -5 -34 -22 -34 -51v-73h113z" />
    <glyph glyph-name="g" unicode="g" horiz-adv-x="626" 
d="M459 -1v59c-44 -41 -104 -67 -172 -67c-140 0 -254 115 -254 255c0 139 114 255 254 255c61 0 115 -25 158 -60c6 -4 11 -10 16 -17v23v54h104v-501c0 -149 -128 -262 -268 -262c-120 0 -201 68 -241 177l87 37c19 -62 85 -114 154 -114c90 0 162 71 162 161zM291 91
c91 0 167 63 167 153c0 93 -76 160 -167 160s-159 -67 -159 -160c0 -90 68 -153 159 -153z" />
    <glyph glyph-name="h" unicode="h" horiz-adv-x="627" 
d="M160 1v253c2 86 67 151 155 151c101 0 160 -65 160 -153v-190v-60h100v250c0 146 -109 253 -260 253c-44 0 -94 -19 -132 -46c-7 -6 -16 -15 -21 -22v35v228h-103v-699h101z" />
    <glyph glyph-name="i" unicode="i" horiz-adv-x="196" 
d="M48 494h101v-493h-101v493zM146 699v-94h-95v94h95z" />
    <glyph glyph-name="j" unicode="j" horiz-adv-x="247" 
d="M178 -55c0 -1 1 -3 0 -4c-6 -106 -78 -133 -145 -137v95c17 5 40 25 40 73v44v36v447h105v-447v-36v-71v0zM172 700v-92h-95v92h95z" />
    <glyph glyph-name="k" unicode="k" horiz-adv-x="518" 
d="M277 259l-24 30l27 29l172 183l-131 -1l-132 -141l-23 -26l1 33l-1 334h-102v-700h103v210l7 7l5 6l14 -21l144 -202h135z" />
    <glyph glyph-name="l" unicode="l" horiz-adv-x="218" 
d="M157 0v702h-99v-702h99z" />
    <glyph glyph-name="m" unicode="m" horiz-adv-x="1050" 
d="M168 252v-252h-102v502h102v-29v-34c7 9 16 19 23 24c38 29 86 43 137 43c90 0 139 -25 190 -92c4 -4 9 -13 11 -19c5 6 9 13 13 19c48 61 112 92 196 92c143 0 252 -116 252 -254v-252h-102v59v193c0 88 -60 158 -150 158c-88 0 -156 -68 -158 -155v-3v-252h-3h-98v0
v252v3c-2 87 -64 155 -151 155c-88 0 -159 -70 -160 -158z" />
    <glyph glyph-name="n" unicode="n" horiz-adv-x="639" 
d="M166 0v251c0 89 69 155 157 155c101 0 153 -66 153 -155v-192v-59h103v251c0 138 -85 253 -262 253c-50 0 -94 -14 -131 -44c-7 -6 -15 -18 -22 -25l2 28v37h-103v-500h103z" />
    <glyph glyph-name="o" unicode="o" horiz-adv-x="589" 
d="M291 512c144 0 262 -116 262 -260s-118 -261 -262 -261s-258 117 -258 261s114 260 258 260zM291 81c97 0 166 74 166 171c0 96 -69 170 -166 170c-95 0 -167 -74 -167 -170c0 -97 72 -171 167 -171z" />
    <glyph glyph-name="p" unicode="p" 
d="M590 253c0 -142 -99 -258 -257 -258c-56 0 -126 10 -168 58v-261h-103v709h103v-39c49 35 99 46 168 46c142 0 257 -100 257 -255zM492 253c0 92 -70 164 -159 164c-92 0 -167 -72 -167 -164c0 -91 75 -162 167 -162c89 0 159 71 159 162z" />
    <glyph glyph-name="q" unicode="q" horiz-adv-x="638" 
d="M290 -6c-159 0 -258 116 -258 259c0 154 116 254 258 254c67 0 117 -11 169 -45v38h102v-710h-102v262c-44 -48 -114 -58 -169 -58zM290 417c-92 0 -160 -72 -160 -164s68 -163 160 -163c93 0 168 71 168 163s-75 164 -168 164z" />
    <glyph glyph-name="r" unicode="r" horiz-adv-x="360" 
d="M164 454c41 33 56 48 159 48v-91c1 0 -141 10 -159 -109v-302h-105v500h105v-46z" />
    <glyph glyph-name="s" unicode="s" horiz-adv-x="431" 
d="M216 294c109 -5 178 -67 172 -162c-5 -98 -103 -142 -187 -138c-89 6 -142 44 -172 113l89 31c15 -32 43 -51 87 -52c48 -3 88 18 89 52c3 42 -18 69 -82 73c-3 0 -4 0 -7 2c-93 7 -160 77 -155 162c4 81 88 139 179 134c69 -5 117 -33 147 -78l-69 -48
c-17 26 -47 44 -81 45c-52 3 -81 -21 -84 -59c-2 -34 24 -72 74 -75v0z" />
    <glyph glyph-name="t" unicode="t" horiz-adv-x="422" 
d="M386 499v-93h-126v-407h-101v407h-133v93h133v201h101v-201h126z" />
    <glyph glyph-name="u" unicode="u" horiz-adv-x="629" 
d="M304 -7c-151 0 -256 110 -256 246v260h103v-72v-188c0 -88 57 -152 153 -152c72 0 150 64 151 151v6v182v73h100v-496h-101v63c-39 -43 -90 -73 -150 -73z" />
    <glyph glyph-name="v" unicode="v" horiz-adv-x="491" 
d="M357 498h114l-234 -516l-219 516h109l77 -195l33 -92l36 90z" />
    <glyph glyph-name="w" unicode="w" horiz-adv-x="806" 
d="M684 500h105l-198 -513l-158 294l-27 58l-26 -59l-148 -293l-214 513h112l100 -253l18 -49l21 47l135 267l145 -268l23 -47l16 46z" />
    <glyph glyph-name="x" unicode="x" horiz-adv-x="467" 
d="M315 219l-26 44l24 37l129 199h-106l-79 -128l-24 -41l-24 42l-70 127h-106l116 -199l24 -42l-26 -40l-128 -218h105l83 143l24 42l23 -44l82 -141h110z" />
    <glyph glyph-name="y" unicode="y" horiz-adv-x="570" 
d="M538 498h-101l-143 -315l-25 -57l-21 58l-124 314h-97l174 -428l19 -43l-20 -46l-55 -118h107z" />
    <glyph glyph-name="z" unicode="z" horiz-adv-x="461" 
d="M429 499h-395v-83h180l63 1l-33 -52l-223 -366h399v82h-191l-56 -2l36 56z" />
    <glyph glyph-name="parenleft" unicode="(" horiz-adv-x="341" 
d="M301 707l-1 66c-53 -15 -83 -35 -127 -81c-91 -95 -140 -213 -140 -334c0 -105 29 -197 88 -280c54 -77 112 -126 179 -147l1 66c-128 76 -190 209 -190 360c0 142 68 276 190 350z" />
    <glyph glyph-name="parenright" unicode=")" horiz-adv-x="365" 
d="M58 769l-1 -66c120 -74 187 -207 187 -348c0 -150 -61 -281 -188 -358l2 -65c65 22 122 70 176 146c60 82 88 174 88 279c0 120 -48 237 -139 331c-44 46 -73 65 -125 81z" />
    <glyph glyph-name="asterisk" unicode="*" horiz-adv-x="284" 
d="M187 597l59 51l-78 1l-27 74l-31 -74l-75 -1l59 -51l-21 -77l66 42l68 -42z" />
    <glyph glyph-name="comma" unicode="," horiz-adv-x="208" 
d="M96 0v-80c6 5 56 32 56 67v110h-99v-97h43z" />
    <glyph glyph-name="period" unicode="." horiz-adv-x="237" 
d="M166 0v97h-97v-97h97z" />
    <glyph glyph-name="percent" unicode="%" horiz-adv-x="686" 
d="M464 700h110l-348 -698h-110zM317 561c0 -81 -66 -146 -148 -146c-81 0 -146 65 -146 146c0 83 65 148 146 148c82 0 148 -65 148 -148zM104 561c0 -35 31 -64 65 -64c37 0 66 29 66 64c0 36 -29 65 -66 65c-34 0 -65 -29 -65 -65zM667 139c0 -81 -67 -146 -148 -146
s-147 65 -147 146c0 83 66 148 147 148s148 -65 148 -148zM453 139c0 -34 29 -63 66 -63c36 0 65 29 65 63c0 37 -29 66 -65 66c-37 0 -66 -29 -66 -66z" />
    <glyph glyph-name="quoteright" unicode="&#x2019;" horiz-adv-x="217" 
d="M97 599l-2 -76c8 7 57 31 59 64v113h-102v-101h45z" />
    <glyph glyph-name="plus" unicode="+" horiz-adv-x="405" 
d="M151 452v-105h-104v-97h104v-104h97v104h104v97h-104v105h-97z" />
    <glyph glyph-name="hyphen" unicode="-" horiz-adv-x="405" 
d="M371 266v72h-337v-72h337z" />
    <glyph glyph-name="ampersand" unicode="&#x26;" 
d="M609 211l-123 -1l-29 -36l-174 184c77 66 183 104 183 217c0 80 -86 136 -188 136c-116 0 -196 -62 -196 -167c0 -59 12 -99 80 -169c-80 -55 -124 -118 -124 -197c0 -117 86 -188 221 -188c80 0 136 11 204 71l56 -60h114l-114 119c10 14 90 91 90 91zM221 312l182 -192
c-48 -44 -80 -54 -147 -54c-72 0 -135 34 -135 105c-2 60 24 83 100 141zM380 569c0 -47 -55 -81 -151 -147c-71 63 -70 104 -70 129c0 45 46 90 119 90c75 0 102 -29 102 -72z" />
    <glyph glyph-name="quotedblright" unicode="&#x201d;" horiz-adv-x="374" 
d="M110 597v-78c8 6 59 33 59 66v115h-105v-103h46zM248 595l-2 -78c9 6 60 33 61 66v117h-106v-105h47z" />
    <glyph glyph-name="Adieresis" unicode="&#xc4;" horiz-adv-x="578" 
d="M154 658v83h86v-83h-86zM338 658v83h86v-83h-86zM462 1c0 0 -18 44 -41 101h-267c-21 -57 -39 -101 -39 -101h-99l272 633l273 -633h-99zM289 182c91 0 101 -1 101 -1s-15 34 -22 50c-13 37 -26 67 -32 85c-31 75 -47 126 -47 126s-19 -52 -49 -126
c-8 -19 -19 -49 -33 -85c-6 -15 -21 -50 -21 -50s13 1 103 1z" />
    <glyph glyph-name="Odieresis" unicode="&#xd6;" horiz-adv-x="656" 
d="M325 630c172 0 310 -142 310 -320c0 -176 -138 -318 -310 -318c-171 0 -308 142 -308 318c0 178 137 320 308 320zM325 83c117 0 213 102 213 227c0 126 -96 228 -213 228s-211 -102 -211 -228c0 -125 94 -227 211 -227zM188 660v83h86v-83h-86zM372 660v83h86v-83h-86z
" />
    <glyph glyph-name="Udieresis" unicode="&#xdc;" horiz-adv-x="559" 
d="M421 617h69h10v-408c0 -122 -98 -218 -220 -218c-123 0 -222 96 -222 218v408h10h71h6v-398c0 -77 60 -145 135 -145c74 0 133 68 133 145v398h8zM145 661v83h87l-1 -83h-86zM329 661v83h85v-83h-85z" />
    <glyph glyph-name="adieresis" unicode="&#xe4;" 
d="M462 501h103v-497h-103v21v43c-10 -10 -21 -22 -32 -31c-42 -29 -91 -45 -145 -45c-143 0 -257 116 -257 258c0 141 114 257 257 257c55 0 107 -18 150 -49c9 -7 18 -18 27 -27v42v28zM285 84c91 0 179 72 179 164c0 91 -88 165 -179 165s-164 -74 -164 -165
s73 -164 164 -164zM145 561v98h101l-1 -98h-100zM361 561v98h101v-98h-101z" />
    <glyph glyph-name="odieresis" unicode="&#xf6;" horiz-adv-x="576" 
d="M289 514c146 0 264 -120 264 -265c0 -146 -118 -264 -264 -264s-265 118 -265 264c0 145 119 265 265 265zM289 76c97 0 168 76 168 173c0 98 -71 172 -168 172c-98 0 -170 -74 -170 -172c0 -97 72 -173 170 -173zM125 555v98h101v-98h-101zM343 555v98h101l-2 -98h-99z
" />
    <glyph glyph-name="udieresis" unicode="&#xfc;" horiz-adv-x="600" 
d="M130 537v94h97l-1 -94h-96zM337 537v94h97v-94h-97zM289 -7c-152 0 -256 110 -256 247v260h101v-71v-189c0 -87 58 -151 155 -151c71 0 150 63 151 150v5v185v71h100v-497h-101v34l1 33c-7 -7 -13 -17 -20 -23c-36 -33 -80 -54 -131 -54z" />
    <glyph glyph-name="zero" unicode="0" horiz-adv-x="577" 
d="M523 217v258c0 158 -122 234 -228 234c-114 0 -239 -69 -239 -234v-250c0 -78 19 -127 57 -164c55 -54 108 -69 177 -69c123 0 233 75 233 225zM415 478v-256c0 -114 -88 -131 -125 -131c-42 0 -124 23 -124 134v247c0 84 64 127 126 127c59 0 123 -49 123 -121z" />
    <glyph glyph-name="one" unicode="1" horiz-adv-x="312" 
d="M245 0v700h-203v-102h94v-598h109z" />
    <glyph glyph-name="two" unicode="2" horiz-adv-x="564" 
d="M523 0v107l-263 -1l209 238c35 41 53 91 53 145c0 51 -20 98 -58 141c-38 41 -82 66 -133 73c-14 2 -30 3 -49 3c-120 -1 -222 -82 -230 -230h110c0 36 17 67 39 89s53 37 90 37c28 0 70 -13 92 -35c24 -22 28 -50 28 -78s-7 -62 -38 -98l-338 -391h488z" />
    <glyph glyph-name="three" unicode="3" horiz-adv-x="520" 
d="M413 368c52 -32 78 -83 78 -151c0 -34 -3 -58 -10 -77c-18 -47 -47 -83 -87 -108c-40 -24 -85 -36 -135 -36c-63 0 -115 19 -159 57c-43 39 -67 90 -67 151h114c1 -60 53 -108 116 -108c65 0 118 50 118 111v4v4c0 57 -47 103 -104 103h-45v96c5 0 31 2 40 2
c53 0 97 43 97 94c0 41 -25 74 -61 89c-12 4 -25 9 -39 9c-54 0 -98 -43 -98 -93v-9h-117c14 132 91 199 216 199c58 0 106 -18 148 -51c42 -36 64 -83 64 -139c0 -63 -23 -111 -69 -147z" />
    <glyph glyph-name="four" unicode="4" horiz-adv-x="591" 
d="M561 97v90h-76v525l-456 -615h359v-97h95v97h78zM261 187l-49 -1l36 48l117 157l23 36v-41v-171v-29l-30 1h-97z" />
    <glyph glyph-name="five" unicode="5" horiz-adv-x="591" 
d="M539 247v-6v0c0 -19 -1 -26 -6 -44c-10 -47 -32 -87 -65 -122c-44 -46 -94 -71 -159 -79c-10 -1 -31 -1 -31 -1h-13c-46 0 -83 13 -124 40c-51 31 -77 60 -103 134c-2 4 -2 10 -3 15h108c26 -55 70 -93 137 -93c91 0 160 60 160 149c0 90 -73 160 -165 160
c-56 0 -106 -26 -135 -69l-50 29l129 339h289v-100h-224l-43 -113c28 3 90 6 115 -2c42 -10 80 -32 114 -68c45 -50 69 -106 69 -169z" />
    <glyph glyph-name="six" unicode="6" horiz-adv-x="547" 
d="M316 442c111 -22 194 -114 194 -223c0 -125 -108 -226 -242 -226c-133 0 -240 101 -240 226c0 44 14 84 36 119v0l1 2c5 9 12 16 19 25l267 347l89 -69l-134 -172l-22 -28c10 0 23 0 32 -1zM268 91c74 0 133 57 133 126c0 70 -59 127 -133 127c-73 0 -133 -57 -133 -127
c0 -69 60 -126 133 -126z" />
    <glyph glyph-name="seven" unicode="7" horiz-adv-x="618" 
d="M583 699h-532v-104h352l-297 -596h137z" />
    <glyph glyph-name="eight" unicode="8" horiz-adv-x="527" 
d="M400 365c51 -37 85 -95 85 -161c0 -112 -99 -210 -222 -210c-121 0 -220 98 -220 210c0 64 32 123 83 159c-42 37 -68 89 -68 147c0 108 91 197 204 197c112 0 204 -89 204 -197c0 -58 -25 -109 -66 -145zM262 605c-54 0 -99 -42 -99 -95c0 -54 45 -102 99 -102
c55 0 99 48 99 102c0 53 -44 95 -99 95zM263 92c64 0 116 54 116 112s-52 111 -116 111c-62 0 -114 -53 -114 -111s52 -112 114 -112z" />
    <glyph glyph-name="nine" unicode="9" horiz-adv-x="562" 
d="M444 648c53 -43 80 -97 80 -160c0 -38 -12 -78 -36 -120c-12 -21 -35 -55 -74 -104l-206 -264h-141l217 270c-10 -6 -25 -8 -30 -8c-59 0 -111 22 -154 67c-44 45 -64 97 -64 157c0 62 23 114 72 159c47 45 102 65 164 65c64 0 121 -20 172 -62zM280 366
c73 0 131 55 131 122c0 68 -58 121 -131 121s-131 -53 -131 -121c0 -67 58 -122 131 -122z" />
    <glyph glyph-name="colon" unicode=":" horiz-adv-x="253" 
d="M181 0v98h-97v-98h97zM181 362v98h-97v-98h97z" />
    <glyph glyph-name="semicolon" unicode=";" horiz-adv-x="216" 
d="M86 0v-91c8 6 63 37 63 75v103h-93v-87h30zM146 372v88h-89v-88h89z" />
    <glyph glyph-name="equal" unicode="=" horiz-adv-x="433" 
d="M371 315v83h-309v-83h309zM371 203v83h-309v-83h309z" />
    <glyph glyph-name="underscore" unicode="_" horiz-adv-x="437" 
d="M394 -34v67h-352v-67h352z" />
    <glyph glyph-name="acute" unicode="&#xb4;" horiz-adv-x="232" 
d="M107 597l-2 -78c9 6 58 31 60 65v116h-104v-103h46z" />
    <glyph glyph-name="grave" unicode="`" horiz-adv-x="243" 
d="M110 630h1l-1 -79c8 7 54 31 56 66v83h-78v-70h22z" />
    <glyph glyph-name="guillemotleft" unicode="&#xab;" horiz-adv-x="559" 
d="M302 500l-177 -251l176 -249h-105l-175 249l175 251h106zM526 500l-177 -251l176 -249h-106l-174 249l174 251h107z" />
    <glyph glyph-name="guillemotright" unicode="&#xbb;" horiz-adv-x="561" 
d="M248 499l177 -250l-175 -249h105l174 249l-174 250h-107zM25 499l177 -250l-176 -249h105l175 249l-175 250h-106z" />
    <glyph glyph-name="quoteleft" unicode="&#x2018;" horiz-adv-x="234" 
d="M106 737l1 -75h-44v-98h101v112c-2 31 -50 55 -58 61z" />
    <glyph glyph-name="quotesingle" unicode="'" horiz-adv-x="178" 
d="M79 597v-75c8 7 53 30 55 63v115h-103v-103h48z" />
    <glyph glyph-name="less" unicode="&#x3c;" horiz-adv-x="345" 
d="M312 500l-177 -251l176 -249h-105l-175 249l175 251h106z" />
    <glyph glyph-name="greater" unicode="&#x3e;" horiz-adv-x="336" 
d="M26 500l177 -251l-176 -249h105l175 249l-175 251h-106z" />
    <glyph glyph-name="question" unicode="?" horiz-adv-x="493" 
d="M299 0v93h-96v-93h96zM254 706c119 0 211 -87 211 -207c0 -55 -20 -98 -80 -156c-70 -66 -86 -101 -89 -159h-90v8c0 61 28 120 93 181c67 59 79 79 79 124c0 78 -50 128 -130 128c-52 0 -84 -16 -114 -60c-16 -22 -24 -44 -25 -87h-81v18c0 116 103 210 226 210z" />
    <glyph glyph-name="at" unicode="@" horiz-adv-x="689" 
d="M344 511c161 0 302 -136 302 -302c0 -41 -7 -82 -28 -127c-24 -45 -82 -106 -136 -88c-39 15 -38 45 -38 45v2v18v18c-4 -3 -8 -8 -12 -12c-29 -23 -68 -37 -109 -37c-97 0 -176 78 -176 174c0 97 79 175 176 175c41 0 78 -13 109 -37l12 -12v15v31h70v-333c3 0 8 2 13 6
c6 4 11 7 15 12c32 41 51 91 51 150c0 137 -112 249 -249 249c-138 0 -250 -112 -250 -249c0 -138 112 -250 250 -250c27 0 56 5 82 13l32 -48c-31 -12 -79 -19 -114 -19c-165 0 -305 135 -305 304c0 171 141 302 305 302zM311 91c5 -2 9 -2 13 -2c62 0 121 50 121 112
s-59 112 -121 112c-12 0 -24 -1 -33 -4c-41 -17 -72 -60 -72 -107c0 -54 40 -101 92 -111z" />
    <glyph glyph-name="eacute" unicode="&#xe9;" horiz-adv-x="583" 
d="M431 166h104c-48 -116 -146 -175 -248 -175c-141 0 -257 117 -257 260c0 141 116 258 257 258s256 -117 256 -258c0 -11 -1 -20 -1 -30h-93h-49h-272c13 -77 79 -137 159 -137c62 0 115 32 144 82zM138 316c-1 -6 -6 -13 -7 -19h18h264h30c-3 9 -6 16 -11 23
c-25 57 -80 98 -145 98c-67 0 -123 -44 -149 -102zM417 680l-153 -128l-54 59l152 129z" />
    <glyph glyph-name="egrave" unicode="&#xe8;" horiz-adv-x="579" 
d="M432 168h106c-48 -116 -146 -176 -248 -176c-143 0 -258 118 -258 260s115 259 258 259c141 0 256 -117 256 -259c0 -10 0 -19 -2 -29h-92h-51h-271c14 -78 78 -137 160 -137c62 0 116 31 142 82zM141 318c-3 -6 -6 -13 -8 -19h18h264h31c-3 9 -8 16 -11 23
c-26 57 -80 99 -145 99c-69 0 -126 -45 -149 -103zM157 683l155 -128l55 59l-153 130z" />
    <glyph glyph-name="agrave" unicode="&#xe0;" horiz-adv-x="628" 
d="M465 499h101v-494h-101v34v27l-18 -18c-44 -34 -99 -55 -160 -55c-140 0 -254 114 -254 254c0 143 114 256 254 256c61 0 116 -21 158 -55c8 -6 14 -12 20 -18v23v46zM289 84c90 0 176 71 176 162c0 90 -86 164 -176 164c-91 0 -164 -72 -164 -163
c0 -90 73 -163 164 -163zM189 680l153 -126l55 59l-153 128z" />
    <glyph glyph-name="endash" unicode="&#x2013;" horiz-adv-x="573" 
d="M23 271v60h523v-60h-523zM-4270 -524v59h523v-59h-523z" />
    <glyph glyph-name="emdash" unicode="&#x2014;" horiz-adv-x="646" 
d="M31 272v58h583v-58h-583z" />
    <glyph glyph-name="bar" unicode="|" horiz-adv-x="173" 
d="M51 751h68v-804h-68v804z" />
    <glyph glyph-name="quotesinglbase" unicode="&#x201a;" horiz-adv-x="185" 
d="M85 0v-68c6 4 53 28 53 57v98h-88v-87h35z" />
    <glyph glyph-name="Euro" unicode="&#x20ac;" horiz-adv-x="789" 
d="M667 195l90 -37c-64 -101 -174 -167 -300 -167c-168 0 -305 119 -339 279h-92v55h83v24v32h-83v54h93c37 157 173 273 338 273c119 0 225 -60 289 -150l-78 -57c-48 70 -117 115 -211 115c-109 0 -202 -76 -237 -181h270v-54h-282c-1 -11 -1 -21 -1 -32v-24h283v-55h-272
c33 -108 128 -189 239 -189c91 0 164 49 210 114z" />
    <glyph glyph-name="braceleft" unicode="{" horiz-adv-x="287" 
d="M148 460l7 157c0 68 19 86 91 87v58h-16c-97 0 -147 -42 -147 -136v-165c0 -50 -4 -68 -45 -87v-47c38 -21 45 -37 45 -92v-150c0 -106 39 -149 140 -149h23v58c-74 1 -91 20 -91 90l-7 153c0 61 -9 84 -37 111c38 38 37 50 37 112z" />
    <glyph glyph-name="braceright" unicode="}" horiz-adv-x="304" 
d="M140 622l7 -159c0 -63 0 -74 37 -112c-28 -27 -37 -51 -37 -112l-7 -154c0 -69 -18 -89 -92 -90v-58h23c102 0 142 43 142 149v152c0 55 6 72 43 92v47c-40 19 -43 37 -43 88v166c0 94 -50 136 -149 136h-16v-59c73 -1 92 -18 92 -86z" />
    <glyph glyph-name="divide" unicode="&#xf7;" horiz-adv-x="403" 
d="M237 380v71h-68v-71h68zM237 143v70h-68v-70h68zM352 274v50h-305v-50h305z" />
    <glyph glyph-name="dotaccent" unicode="&#x2d9;" horiz-adv-x="500" 
 />
  </font>
</defs>
</svg>
